<svg xmlns="http://www.w3.org/2000/svg" viewBox="0 0 51.52 55.82"><defs><style>.cls-1,.cls-2,.cls-3,.cls-4,.cls-5{fill:none;stroke:#5c6eb2;stroke-width:2px;}.cls-1{stroke-linejoin:round;}.cls-2,.cls-3{stroke-miterlimit:10;}.cls-3,.cls-5{stroke-linecap:round;}</style></defs><title>Recurso 2</title><g id="Capa_2" data-name="Capa 2"><g id="Capa_1-2" data-name="Capa 1"><g id="Group_223" data-name="Group 223"><g id="Group_255" data-name="Group 255"><g id="Group_252" data-name="Group 252"><path id="Path_785" data-name="Path 785" class="cls-1" d="M18.82,49.49V19.61a7.29,7.29,0,0,0,3.27,4.3,12.22,12.22,0,0,0,5.45,1.5"/><line id="Line_12" data-name="Line 12" class="cls-2" x1="27.4" y1="25.09" x2="27.32" y2="54.81"/><line id="Line_13" data-name="Line 13" class="cls-3" x1="18.82" y1="19.61" x2="41.9" y2="11.83"/><line id="Line_14" data-name="Line 14" class="cls-3" x1="27.11" y1="25.28" x2="50.16" y2="17.25"/><line id="Line_15" data-name="Line 15" class="cls-3" x1="27.32" y1="54.78" x2="50.01" y2="46.69"/><line id="Line_16" data-name="Line 16" class="cls-2" x1="50.01" y1="17.03" x2="50.01" y2="46.88"/><path id="Path_786" data-name="Path 786" class="cls-2" d="M18.82,49a7.29,7.29,0,0,0,3.27,4.3,12.22,12.22,0,0,0,5.45,1.5"/><path id="Path_801" data-name="Path 801" class="cls-4" d="M24.34.81s-2.29,4.58,8.73,5.42"/><path id="Path_802" data-name="Path 802" class="cls-4" d="M33.07,6.41S30.78,11,41.79,11.83"/><path id="Path_803" data-name="Path 803" class="cls-5" d="M41.79,11.64s-2.29,4.58,8.73,5.42"/></g><g id="Group_253" data-name="Group 253"><path id="Path_788" data-name="Path 788" class="cls-1" d="M9.87,43.89V14a7.29,7.29,0,0,0,3.27,4.3A12.16,12.16,0,0,0,18.6,19.8"/><line id="Line_17" data-name="Line 17" class="cls-3" x1="9.87" y1="14.01" x2="32.96" y2="6.23"/><path id="Path_793" data-name="Path 793" class="cls-2" d="M9.87,43.42a7.29,7.29,0,0,0,3.27,4.3,12.3,12.3,0,0,0,5.46,1.5"/></g><g id="Group_254" data-name="Group 254"><path id="Path_795" data-name="Path 795" class="cls-1" d="M1,38.66V8.78a7.29,7.29,0,0,0,3.27,4.3,12.16,12.16,0,0,0,5.46,1.49"/><line id="Line_18" data-name="Line 18" class="cls-3" x1="1" y1="8.78" x2="24.09" y2="1"/><path id="Path_800" data-name="Path 800" class="cls-2" d="M1,38.19a7.29,7.29,0,0,0,3.27,4.3A12.3,12.3,0,0,0,9.73,44"/></g></g></g></g></g></svg>